<svg xmlns="http://www.w3.org/2000/svg" xmlns:xlink="http://www.w3.org/1999/xlink" width="500" zoomAndPan="magnify" viewBox="0 0 375 374.999991" height="500" preserveAspectRatio="xMidYMid meet" version="1.2"><defs/><g id="52bdcf886e"><rect x="0" width="375" y="0" height="374.999991" style="fill:#ffffff;fill-opacity:1;stroke:none;"/><rect x="0" width="375" y="0" height="374.999991" style="fill:#1b263b;fill-opacity:1;stroke:none;"/><g style="fill:#ffffff;fill-opacity:1;"><g transform="translate(77.443358, 205.874986)"><path style="stroke:none" d="M 26.078125 -8.265625 L 9.875 -8.265625 L 6.875 0 L 1.765625 0 L 15.203125 -36.96875 L 20.796875 -36.96875 L 34.1875 0 L 29.078125 0 Z M 24.703125 -12.21875 L 17.984375 -31 L 11.25 -12.21875 Z M 24.703125 -12.21875 "/></g></g><g style="fill:#ffffff;fill-opacity:1;"><g transform="translate(113.397064, 205.874986)"><path style="stroke:none" d="M 2.296875 -14.71875 C 2.296875 -17.707031 2.898438 -20.332031 4.109375 -22.59375 C 5.316406 -24.851562 6.976562 -26.601562 9.09375 -27.84375 C 11.207031 -29.09375 13.582031 -29.71875 16.21875 -29.71875 C 18.488281 -29.71875 20.601562 -29.191406 22.5625 -28.140625 C 24.519531 -27.085938 26.015625 -25.707031 27.046875 -24 L 27.046875 -39.46875 L 31.953125 -39.46875 L 31.953125 0 L 27.046875 0 L 27.046875 -5.5 C 26.085938 -3.75 24.664062 -2.3125 22.78125 -1.1875 C 20.894531 -0.0703125 18.6875 0.484375 16.15625 0.484375 C 13.5625 0.484375 11.207031 -0.15625 9.09375 -1.4375 C 6.976562 -2.71875 5.316406 -4.515625 4.109375 -6.828125 C 2.898438 -9.140625 2.296875 -11.769531 2.296875 -14.71875 Z M 27.046875 -14.671875 C 27.046875 -16.878906 26.597656 -18.800781 25.703125 -20.4375 C 24.816406 -22.070312 23.617188 -23.320312 22.109375 -24.1875 C 20.597656 -25.0625 18.9375 -25.5 17.125 -25.5 C 15.3125 -25.5 13.65625 -25.070312 12.15625 -24.21875 C 10.664062 -23.363281 9.472656 -22.117188 8.578125 -20.484375 C 7.691406 -18.847656 7.25 -16.925781 7.25 -14.71875 C 7.25 -12.476562 7.691406 -10.53125 8.578125 -8.875 C 9.472656 -7.226562 10.664062 -5.96875 12.15625 -5.09375 C 13.65625 -4.21875 15.3125 -3.78125 17.125 -3.78125 C 18.9375 -3.78125 20.597656 -4.21875 22.109375 -5.09375 C 23.617188 -5.96875 24.816406 -7.226562 25.703125 -8.875 C 26.597656 -10.53125 27.046875 -12.460938 27.046875 -14.671875 Z M 27.046875 -14.671875 "/></g></g><g style="fill:#ffffff;fill-opacity:1;"><g transform="translate(149.457452, 205.874986)"><path style="stroke:none" d="M 14.453125 0.484375 C 12.210938 0.484375 10.203125 0.101562 8.421875 -0.65625 C 6.648438 -1.425781 5.25 -2.492188 4.21875 -3.859375 C 3.1875 -5.234375 2.613281 -6.8125 2.5 -8.59375 L 7.515625 -8.59375 C 7.660156 -7.132812 8.347656 -5.941406 9.578125 -5.015625 C 10.804688 -4.085938 12.414062 -3.625 14.40625 -3.625 C 16.25 -3.625 17.703125 -4.03125 18.765625 -4.84375 C 19.835938 -5.664062 20.375 -6.703125 20.375 -7.953125 C 20.375 -9.234375 19.804688 -10.179688 18.671875 -10.796875 C 17.535156 -11.421875 15.773438 -12.035156 13.390625 -12.640625 C 11.222656 -13.210938 9.453125 -13.789062 8.078125 -14.375 C 6.710938 -14.957031 5.539062 -15.828125 4.5625 -16.984375 C 3.582031 -18.140625 3.09375 -19.660156 3.09375 -21.546875 C 3.09375 -23.046875 3.535156 -24.414062 4.421875 -25.65625 C 5.316406 -26.90625 6.582031 -27.894531 8.21875 -28.625 C 9.851562 -29.351562 11.71875 -29.71875 13.8125 -29.71875 C 17.050781 -29.71875 19.664062 -28.898438 21.65625 -27.265625 C 23.644531 -25.628906 24.710938 -23.382812 24.859375 -20.53125 L 20 -20.53125 C 19.894531 -22.0625 19.28125 -23.289062 18.15625 -24.21875 C 17.039062 -25.144531 15.539062 -25.609375 13.65625 -25.609375 C 11.914062 -25.609375 10.53125 -25.234375 9.5 -24.484375 C 8.46875 -23.734375 7.953125 -22.753906 7.953125 -21.546875 C 7.953125 -20.585938 8.257812 -19.796875 8.875 -19.171875 C 9.5 -18.554688 10.28125 -18.0625 11.21875 -17.6875 C 12.164062 -17.3125 13.476562 -16.894531 15.15625 -16.4375 C 17.25 -15.863281 18.953125 -15.300781 20.265625 -14.75 C 21.585938 -14.195312 22.71875 -13.367188 23.65625 -12.265625 C 24.601562 -11.160156 25.09375 -9.722656 25.125 -7.953125 C 25.125 -6.347656 24.675781 -4.90625 23.78125 -3.625 C 22.894531 -2.34375 21.644531 -1.335938 20.03125 -0.609375 C 18.414062 0.117188 16.554688 0.484375 14.453125 0.484375 Z M 14.453125 0.484375 "/></g></g><g style="fill:#6c63ff;fill-opacity:1;"><g transform="translate(177.310539, 205.874986)"><path style="stroke:none" d="M 32.75 -37.1875 L 32.75 0 L 27.90625 0 L 27.90625 -16.859375 L 8.96875 -16.859375 L 8.96875 0 L 4.109375 0 L 4.109375 -37.1875 L 8.96875 -37.1875 L 8.96875 -20.859375 L 27.90625 -20.859375 L 27.90625 -37.1875 Z M 32.75 -37.1875 "/></g></g><g style="fill:#6c63ff;fill-opacity:1;"><g transform="translate(214.224427, 205.874986)"><path style="stroke:none" d="M 6.609375 -33.984375 C 5.691406 -33.984375 4.910156 -34.300781 4.265625 -34.9375 C 3.628906 -35.582031 3.3125 -36.363281 3.3125 -37.28125 C 3.3125 -38.207031 3.628906 -38.988281 4.265625 -39.625 C 4.910156 -40.269531 5.691406 -40.59375 6.609375 -40.59375 C 7.503906 -40.59375 8.257812 -40.269531 8.875 -39.625 C 9.5 -38.988281 9.8125 -38.207031 9.8125 -37.28125 C 9.8125 -36.363281 9.5 -35.582031 8.875 -34.9375 C 8.257812 -34.300781 7.503906 -33.984375 6.609375 -33.984375 Z M 8.96875 -29.234375 L 8.96875 0 L 4.109375 0 L 4.109375 -29.234375 Z M 8.96875 -29.234375 "/></g></g><g style="fill:#6c63ff;fill-opacity:1;"><g transform="translate(227.347, 205.874986)"><path style="stroke:none" d="M 16.15625 -29.71875 C 18.6875 -29.71875 20.898438 -29.164062 22.796875 -28.0625 C 24.703125 -26.957031 26.117188 -25.566406 27.046875 -23.890625 L 27.046875 -29.234375 L 31.953125 -29.234375 L 31.953125 0.640625 C 31.953125 3.304688 31.378906 5.675781 30.234375 7.75 C 29.097656 9.832031 27.472656 11.460938 25.359375 12.640625 C 23.242188 13.816406 20.785156 14.40625 17.984375 14.40625 C 14.140625 14.40625 10.9375 13.5 8.375 11.6875 C 5.8125 9.875 4.300781 7.398438 3.84375 4.265625 L 8.640625 4.265625 C 9.171875 6.046875 10.269531 7.476562 11.9375 8.5625 C 13.613281 9.644531 15.628906 10.1875 17.984375 10.1875 C 20.648438 10.1875 22.828125 9.347656 24.515625 7.671875 C 26.203125 6.003906 27.046875 3.660156 27.046875 0.640625 L 27.046875 -5.5 C 26.085938 -3.789062 24.664062 -2.363281 22.78125 -1.21875 C 20.894531 -0.0820312 18.6875 0.484375 16.15625 0.484375 C 13.5625 0.484375 11.207031 -0.15625 9.09375 -1.4375 C 6.976562 -2.71875 5.316406 -4.515625 4.109375 -6.828125 C 2.898438 -9.140625 2.296875 -11.769531 2.296875 -14.71875 C 2.296875 -17.707031 2.898438 -20.332031 4.109375 -22.59375 C 5.316406 -24.851562 6.976562 -26.601562 9.09375 -27.84375 C 11.207031 -29.09375 13.5625 -29.71875 16.15625 -29.71875 Z M 27.046875 -14.671875 C 27.046875 -16.878906 26.597656 -18.800781 25.703125 -20.4375 C 24.816406 -22.070312 23.617188 -23.320312 22.109375 -24.1875 C 20.597656 -25.0625 18.9375 -25.5 17.125 -25.5 C 15.3125 -25.5 13.65625 -25.070312 12.15625 -24.21875 C 10.664062 -23.363281 9.472656 -22.117188 8.578125 -20.484375 C 7.691406 -18.847656 7.25 -16.925781 7.25 -14.71875 C 7.25 -12.476562 7.691406 -10.53125 8.578125 -8.875 C 9.472656 -7.226562 10.664062 -5.96875 12.15625 -5.09375 C 13.65625 -4.21875 15.3125 -3.78125 17.125 -3.78125 C 18.9375 -3.78125 20.597656 -4.21875 22.109375 -5.09375 C 23.617188 -5.96875 24.816406 -7.226562 25.703125 -8.875 C 26.597656 -10.53125 27.046875 -12.460938 27.046875 -14.671875 Z M 27.046875 -14.671875 "/></g></g><g style="fill:#6c63ff;fill-opacity:1;"><g transform="translate(263.407388, 205.874986)"><path style="stroke:none" d="M 18.609375 -29.765625 C 20.816406 -29.765625 22.8125 -29.289062 24.59375 -28.34375 C 26.375 -27.40625 27.769531 -25.992188 28.78125 -24.109375 C 29.789062 -22.222656 30.296875 -19.929688 30.296875 -17.234375 L 30.296875 0 L 25.5 0 L 25.5 -16.53125 C 25.5 -19.445312 24.769531 -21.675781 23.3125 -23.21875 C 21.851562 -24.769531 19.863281 -25.546875 17.34375 -25.546875 C 14.78125 -25.546875 12.742188 -24.742188 11.234375 -23.140625 C 9.722656 -21.546875 8.96875 -19.21875 8.96875 -16.15625 L 8.96875 0 L 4.109375 0 L 4.109375 -39.46875 L 8.96875 -39.46875 L 8.96875 -25.078125 C 9.925781 -26.566406 11.25 -27.71875 12.9375 -28.53125 C 14.625 -29.351562 16.515625 -29.765625 18.609375 -29.765625 Z M 18.609375 -29.765625 "/></g></g></g></svg>