<svg xmlns="http://www.w3.org/2000/svg" width="4167" height="499" viewBox="0 0 4167 499" version="1.1"><path d="M 1960.169 13.031 C 1886.436 20.176, 1827.262 56.784, 1790.974 117.702 C 1766.918 158.085, 1755.129 209.699, 1758.050 261.849 C 1761.487 323.204, 1782.939 375.526, 1820.967 415.304 C 1853.478 449.311, 1894.693 470.287, 1945.500 478.682 C 1961.216 481.279, 2003.784 481.279, 2019.500 478.682 C 2070.654 470.229, 2110.545 449.964, 2144.070 415.398 C 2178.006 380.409, 2198.512 336.354, 2206.163 282 C 2208.233 267.293, 2207.939 222.523, 2205.677 208 C 2203.295 192.711, 2199.861 177.675, 2196.009 165.669 C 2169.586 83.324, 2104.484 27.719, 2019.500 14.910 C 2004.418 12.637, 1974.131 11.678, 1960.169 13.031 M 2871 12.580 C 2869.075 12.806, 2863.271 13.484, 2858.103 14.086 C 2830.580 17.294, 2800.895 28.517, 2779.850 43.670 C 2770.598 50.331, 2756.135 64.950, 2750.339 73.500 C 2735.068 96.026, 2728.191 123.341, 2730.919 150.632 C 2734.764 189.087, 2753.487 215.636, 2791.043 235.883 C 2809.595 245.886, 2833.252 254.106, 2880.606 267.006 C 2945.609 284.712, 2967.691 294.491, 2984.004 312.794 C 2996.073 326.335, 3000.788 346.970, 2996.505 367.500 C 2993.256 383.069, 2982.082 399.876, 2968.642 409.410 C 2950.450 422.314, 2929.157 428.558, 2899.500 429.686 C 2846.947 431.685, 2799.386 413.123, 2761.364 375.774 L 2750.227 364.835 2734.364 385.118 C 2725.639 396.273, 2717.854 406.292, 2717.065 407.383 C 2715.725 409.235, 2716.332 410.039, 2726.301 419.605 C 2763.238 455.053, 2808.002 474.648, 2864.500 480.102 C 2879.660 481.565, 2916.921 480.711, 2930.500 478.589 C 2961.411 473.758, 2986.530 464.358, 3006.500 450.147 C 3013.188 445.388, 3027.203 431.813, 3032.461 425 C 3050.779 401.264, 3060.076 367.348, 3057.038 335.337 C 3055.088 314.781, 3049.041 296.890, 3038.972 281.881 C 3032.804 272.689, 3017.998 258.423, 3007.038 251.114 C 2982.613 234.825, 2958.538 225.545, 2896.580 208.534 C 2841.862 193.512, 2821.625 185.223, 2806.283 171.549 C 2794.083 160.675, 2789.392 149.056, 2790.239 131.805 C 2791.056 115.157, 2796.901 102.245, 2809.125 90.088 C 2827.429 71.884, 2856.413 62.766, 2891 64.333 C 2937.607 66.444, 2975.796 81.988, 3005.309 110.860 C 3012.994 118.378, 3013.145 118.468, 3014.809 116.463 C 3030.384 97.699, 3047 76.965, 3047 76.294 C 3047 75.820, 3044.637 73.148, 3041.750 70.357 C 3010.785 40.428, 2971.669 21.769, 2925.500 14.903 C 2913.159 13.068, 2879.188 11.620, 2871 12.580 M 1306 246.500 L 1306 473 1335 473 L 1364 473 1364 369.500 L 1364 266 1495.500 266 L 1627 266 1627 369.500 L 1627 473 1656 473 L 1685 473 1685 246.500 L 1685 20 1656 20 L 1627 20 1627 117 L 1627 214 1495.500 214 L 1364 214 1364 117 L 1364 20 1335 20 L 1306 20 1306 246.500 M 2281 162.355 C 2281 304.530, 2281.314 320.117, 2284.573 339.500 C 2291.669 381.703, 2310.457 417.231, 2337.905 440.345 C 2361.922 460.571, 2390.519 472.863, 2427 478.644 C 2443.522 481.262, 2489.719 481.282, 2505.500 478.679 C 2559.659 469.745, 2596.726 447.949, 2622.010 410.169 C 2635.205 390.454, 2644.296 365.556, 2649.273 335.500 C 2651.399 322.661, 2651.430 320.621, 2651.747 171.250 L 2652.067 20 2623.034 20 L 2594 20 2594 162.394 C 2594 254.522, 2593.630 308.444, 2592.951 315.144 C 2586.536 378.465, 2553.339 416.782, 2495.500 427.625 C 2481.828 430.188, 2450.697 430.215, 2437 427.676 C 2388.720 418.725, 2356.874 389.240, 2344.972 342.470 C 2339.417 320.643, 2339.638 327.400, 2339.272 168.250 L 2338.931 20 2309.966 20 L 2281 20 2281 162.355 M 3127 246.500 L 3127 473 3276 473 L 3425 473 3425 447.500 L 3425 422 3304.500 422 L 3184 422 3184 344.500 L 3184 267 3304.500 267 L 3425 267 3425 241.500 L 3425 216 3304.500 216 L 3184 216 3184 143.500 L 3184 71 3304.500 71 L 3425 71 3425 45.500 L 3425 20 3276 20 L 3127 20 3127 246.500 M 1966.669 64.034 C 1937.990 66.564, 1909.196 76.792, 1887.530 92.144 C 1875.944 100.353, 1860.303 116.035, 1851.736 128.029 C 1844.299 138.442, 1832.594 161.241, 1828.620 173.053 C 1824.987 183.853, 1821.240 199.165, 1819.426 210.617 C 1817.259 224.304, 1816.472 254.758, 1817.904 269.500 C 1824.789 340.390, 1862.054 395.254, 1918.772 418.006 C 1963.700 436.028, 2020.560 433.323, 2061 411.240 C 2080.897 400.375, 2101.485 382.104, 2114.232 364 C 2144.167 321.483, 2155.484 262.468, 2144.936 203.887 C 2133.996 143.134, 2096.944 95.124, 2045.512 75.060 C 2021.818 65.817, 1992.668 61.740, 1966.669 64.034" stroke="none" fill="#442444" fill-rule="evenodd"/><path d="M 11 246.464 L 11 473 51.500 473 L 92 473 92 388.488 L 92 303.977 131.123 304.238 L 170.247 304.500 219.873 388.714 L 269.500 472.929 316.285 472.964 C 360.547 472.998, 363.019 472.906, 362.112 471.250 C 361.584 470.288, 336.638 430.358, 306.676 382.519 L 252.200 295.537 262.350 292.949 C 287.182 286.619, 307.018 275.171, 324.051 257.341 C 331.631 249.407, 340.706 236.647, 345.275 227.500 C 352.513 213.013, 357.711 192.494, 358.892 173.750 C 362.385 118.307, 341.645 72.295, 300.867 45.019 C 285.194 34.535, 267.900 27.469, 246.500 22.803 C 236.613 20.648, 235.224 20.619, 123.750 20.275 L 11 19.927 11 246.464 M 388.237 55.250 L 388.500 90.500 456.750 90.757 L 525 91.014 525 282.007 L 525 473 565.500 473 L 606 473 606 282 L 606 91 674.500 91 L 743 91 743 55.500 L 743 20 565.487 20 L 387.974 20 388.237 55.250 M 795 246.500 L 795 473 915.750 472.992 C 1036.212 472.984, 1045.590 472.755, 1061.699 469.427 C 1092.776 463.008, 1120.865 445.082, 1136.225 421.867 C 1159.674 386.425, 1163.217 337.374, 1145.074 299.370 C 1138.981 286.608, 1133.644 278.737, 1124.698 269.319 C 1111.736 255.673, 1095.564 245.596, 1079.500 241.155 C 1072.719 239.281, 1072.588 239.185, 1075.315 238.110 C 1076.863 237.500, 1078.597 237, 1079.168 237 C 1081.270 237, 1096.931 229.122, 1103.119 224.952 C 1111.263 219.464, 1123.437 207.303, 1128.893 199.206 C 1157.893 156.170, 1152.958 92.904, 1117.795 56.926 C 1098.718 37.407, 1075.415 26.179, 1044.220 21.477 C 1036.098 20.253, 1014.817 20.011, 914.750 20.006 L 795 20 795 246.500 M 3790 45.500 L 3790 71 3974 71 L 4158 71 4158 45.500 L 4158 20 3974 20 L 3790 20 3790 45.500 M 92 162 L 92 233.084 154.750 232.759 C 216.777 232.437, 217.586 232.407, 225 230.149 C 250.952 222.248, 268.032 205.346, 274.698 180.968 C 277.481 170.794, 277.209 149.781, 274.168 140 C 267.198 117.579, 250.117 101.222, 225.973 93.848 C 218.583 91.592, 217.794 91.563, 155.250 91.241 L 92 90.916 92 162 M 876 148.500 L 876 206 944.042 206 C 1018.836 206, 1020.708 205.873, 1033.889 199.896 C 1047.374 193.782, 1057.377 182.839, 1062.130 169 C 1065.202 160.054, 1065.887 142.195, 1063.510 133 C 1058.284 112.784, 1043.413 98.349, 1022.234 92.932 C 1015.125 91.114, 1010.591 91, 945.340 91 L 876 91 876 148.500 M 3790 241.500 L 3790 267 3974 267 L 4158 267 4158 241.500 L 4158 216 3974 216 L 3790 216 3790 241.500 M 876 339.537 L 876 402.073 949.750 401.759 C 1023.367 401.446, 1023.513 401.441, 1030.993 399.152 C 1042.128 395.743, 1049.712 391.332, 1057.250 383.880 C 1069.343 371.925, 1074.620 356.714, 1073.688 336.500 C 1072.262 305.554, 1052.858 283.996, 1021.510 278.530 C 1014.213 277.257, 1001.241 277, 944.369 277 L 876 277 876 339.537" stroke="none" fill="#ec4434" fill-rule="evenodd"/></svg>