<svg xmlns="http://www.w3.org/2000/svg" xmlns:xlink="http://www.w3.org/1999/xlink" width="500" zoomAndPan="magnify" viewBox="0 0 375 374.999991" height="500" preserveAspectRatio="xMidYMid meet" version="1.0"><defs><g/></defs><rect x="-37.5" width="450" fill="#ffffff" y="-37.499999" height="449.999989" fill-opacity="1"/><rect x="-37.5" width="450" fill="#0f172a" y="-37.499999" height="449.999989" fill-opacity="1"/><g fill="#ffffff" fill-opacity="1"><g transform="translate(112.00488, 205.874986)"><g><path d="M 1.5 -14.9375 C 1.5 -18 2.078125 -20.679688 3.234375 -22.984375 C 4.390625 -25.296875 5.960938 -27.070312 7.953125 -28.3125 C 9.941406 -29.5625 12.160156 -30.1875 14.609375 -30.1875 C 16.566406 -30.1875 18.351562 -29.773438 19.96875 -28.953125 C 21.59375 -28.140625 22.867188 -27.039062 23.796875 -25.65625 L 23.796875 -39.46875 L 32.90625 -39.46875 L 32.90625 0 L 23.796875 0 L 23.796875 -4.265625 C 22.941406 -2.847656 21.722656 -1.710938 20.140625 -0.859375 C 18.554688 -0.00390625 16.710938 0.421875 14.609375 0.421875 C 12.160156 0.421875 9.941406 -0.207031 7.953125 -1.46875 C 5.960938 -2.726562 4.390625 -4.519531 3.234375 -6.84375 C 2.078125 -9.175781 1.5 -11.875 1.5 -14.9375 Z M 23.796875 -14.890625 C 23.796875 -17.160156 23.160156 -18.953125 21.890625 -20.265625 C 20.628906 -21.585938 19.09375 -22.25 17.28125 -22.25 C 15.46875 -22.25 13.929688 -21.597656 12.671875 -20.296875 C 11.410156 -18.992188 10.78125 -17.207031 10.78125 -14.9375 C 10.78125 -12.65625 11.410156 -10.847656 12.671875 -9.515625 C 13.929688 -8.179688 15.46875 -7.515625 17.28125 -7.515625 C 19.09375 -7.515625 20.628906 -8.171875 21.890625 -9.484375 C 23.160156 -10.804688 23.796875 -12.609375 23.796875 -14.890625 Z M 23.796875 -14.890625 "/></g></g></g><g fill="#ffffff" fill-opacity="1"><g transform="translate(148.225302, 205.874986)"><g><path d="M 15.421875 0.421875 C 12.816406 0.421875 10.5 -0.0195312 8.46875 -0.90625 C 6.445312 -1.789062 4.847656 -3.003906 3.671875 -4.546875 C 2.503906 -6.097656 1.847656 -7.835938 1.703125 -9.765625 L 10.71875 -9.765625 C 10.820312 -8.734375 11.300781 -7.894531 12.15625 -7.25 C 13.007812 -6.613281 14.0625 -6.296875 15.3125 -6.296875 C 16.445312 -6.296875 17.328125 -6.515625 17.953125 -6.953125 C 18.578125 -7.398438 18.890625 -7.976562 18.890625 -8.6875 C 18.890625 -9.539062 18.441406 -10.171875 17.546875 -10.578125 C 16.660156 -10.992188 15.222656 -11.453125 13.234375 -11.953125 C 11.097656 -12.453125 9.316406 -12.972656 7.890625 -13.515625 C 6.472656 -14.066406 5.25 -14.9375 4.21875 -16.125 C 3.1875 -17.320312 2.671875 -18.9375 2.671875 -20.96875 C 2.671875 -22.675781 3.140625 -24.226562 4.078125 -25.625 C 5.023438 -27.03125 6.410156 -28.140625 8.234375 -28.953125 C 10.066406 -29.773438 12.25 -30.1875 14.78125 -30.1875 C 18.507812 -30.1875 21.445312 -29.257812 23.59375 -27.40625 C 25.75 -25.5625 26.988281 -23.113281 27.3125 -20.0625 L 18.890625 -20.0625 C 18.742188 -21.09375 18.285156 -21.910156 17.515625 -22.515625 C 16.753906 -23.117188 15.753906 -23.421875 14.515625 -23.421875 C 13.441406 -23.421875 12.617188 -23.210938 12.046875 -22.796875 C 11.484375 -22.390625 11.203125 -21.832031 11.203125 -21.125 C 11.203125 -20.269531 11.65625 -19.628906 12.5625 -19.203125 C 13.46875 -18.773438 14.878906 -18.347656 16.796875 -17.921875 C 19.003906 -17.347656 20.800781 -16.785156 22.1875 -16.234375 C 23.570312 -15.691406 24.789062 -14.804688 25.84375 -13.578125 C 26.894531 -12.347656 27.4375 -10.703125 27.46875 -8.640625 C 27.46875 -6.898438 26.976562 -5.34375 26 -3.96875 C 25.019531 -2.601562 23.613281 -1.53125 21.78125 -0.75 C 19.957031 0.03125 17.835938 0.421875 15.421875 0.421875 Z M 15.421875 0.421875 "/></g></g></g><g fill="#ffffff" fill-opacity="1"><g transform="translate(177.993156, 205.874986)"><g/></g></g><g fill="#ffffff" fill-opacity="1"><g transform="translate(189.302036, 205.874986)"><g/></g></g><g fill="#ffffff" fill-opacity="1"><g transform="translate(200.610915, 205.874986)"><g/></g></g><g fill="#ffffff" fill-opacity="1"><g transform="translate(211.919794, 205.874986)"><g/></g></g><g fill="#6c63ff" fill-opacity="1"><g transform="translate(223.239247, 205.874986)"><g><path d="M 7.890625 -32.859375 C 6.296875 -32.859375 4.988281 -33.328125 3.96875 -34.265625 C 2.957031 -35.210938 2.453125 -36.378906 2.453125 -37.765625 C 2.453125 -39.191406 2.957031 -40.375 3.96875 -41.3125 C 4.988281 -42.257812 6.296875 -42.734375 7.890625 -42.734375 C 9.453125 -42.734375 10.738281 -42.257812 11.75 -41.3125 C 12.769531 -40.375 13.28125 -39.191406 13.28125 -37.765625 C 13.28125 -36.378906 12.769531 -35.210938 11.75 -34.265625 C 10.738281 -33.328125 9.453125 -32.859375 7.890625 -32.859375 Z M 12.421875 -29.765625 L 12.421875 0 L 3.3125 0 L 3.3125 -29.765625 Z M 12.421875 -29.765625 "/></g></g></g><g fill="#6c63ff" fill-opacity="1"><g transform="translate(238.975662, 205.874986)"><g><path d="M 14.609375 -30.1875 C 16.710938 -30.1875 18.554688 -29.757812 20.140625 -28.90625 C 21.722656 -28.050781 22.941406 -26.929688 23.796875 -25.546875 L 23.796875 -29.765625 L 32.90625 -29.765625 L 32.90625 -0.046875 C 32.90625 2.679688 32.363281 5.15625 31.28125 7.375 C 30.195312 9.601562 28.539062 11.375 26.3125 12.6875 C 24.09375 14.007812 21.332031 14.671875 18.03125 14.671875 C 13.625 14.671875 10.050781 13.628906 7.3125 11.546875 C 4.570312 9.460938 3.003906 6.644531 2.609375 3.09375 L 11.625 3.09375 C 11.914062 4.226562 12.59375 5.125 13.65625 5.78125 C 14.71875 6.445312 16.035156 6.78125 17.609375 6.78125 C 19.492188 6.78125 20.992188 6.234375 22.109375 5.140625 C 23.234375 4.054688 23.796875 2.328125 23.796875 -0.046875 L 23.796875 -4.265625 C 22.898438 -2.878906 21.671875 -1.75 20.109375 -0.875 C 18.546875 -0.0078125 16.710938 0.421875 14.609375 0.421875 C 12.160156 0.421875 9.941406 -0.207031 7.953125 -1.46875 C 5.960938 -2.726562 4.390625 -4.519531 3.234375 -6.84375 C 2.078125 -9.175781 1.5 -11.875 1.5 -14.9375 C 1.5 -18 2.078125 -20.679688 3.234375 -22.984375 C 4.390625 -25.296875 5.960938 -27.070312 7.953125 -28.3125 C 9.941406 -29.5625 12.160156 -30.1875 14.609375 -30.1875 Z M 23.796875 -14.890625 C 23.796875 -17.160156 23.160156 -18.953125 21.890625 -20.265625 C 20.628906 -21.585938 19.09375 -22.25 17.28125 -22.25 C 15.46875 -22.25 13.929688 -21.597656 12.671875 -20.296875 C 11.410156 -18.992188 10.78125 -17.207031 10.78125 -14.9375 C 10.78125 -12.65625 11.410156 -10.847656 12.671875 -9.515625 C 13.929688 -8.179688 15.46875 -7.515625 17.28125 -7.515625 C 19.09375 -7.515625 20.628906 -8.171875 21.890625 -9.484375 C 23.160156 -10.804688 23.796875 -12.609375 23.796875 -14.890625 Z M 23.796875 -14.890625 "/></g></g></g><g fill="#6c63ff" fill-opacity="1"><g transform="translate(275.196085, 205.874986)"><g><path d="M 21.609375 -30.078125 C 25.015625 -30.078125 27.75 -28.945312 29.8125 -26.6875 C 31.875 -24.4375 32.90625 -21.335938 32.90625 -17.390625 L 32.90625 0 L 23.84375 0 L 23.84375 -16.15625 C 23.84375 -18.15625 23.328125 -19.703125 22.296875 -20.796875 C 21.265625 -21.898438 19.878906 -22.453125 18.140625 -22.453125 C 16.390625 -22.453125 15 -21.898438 13.96875 -20.796875 C 12.9375 -19.703125 12.421875 -18.15625 12.421875 -16.15625 L 12.421875 0 L 3.3125 0 L 3.3125 -39.46875 L 12.421875 -39.46875 L 12.421875 -25.765625 C 13.347656 -27.078125 14.609375 -28.125 16.203125 -28.90625 C 17.804688 -29.6875 19.609375 -30.078125 21.609375 -30.078125 Z M 21.609375 -30.078125 "/></g></g></g><g fill="#6c63ff" fill-opacity="1"><g transform="translate(178.32755, 205.320001)"><g><path d="M 42.46875 -44.5 L 42.46875 0 L 31.625 0 L 31.625 -18.3125 L 14.765625 -18.3125 L 14.765625 0 L 3.9375 0 L 3.9375 -44.5 L 14.765625 -44.5 L 14.765625 -27.0625 L 31.625 -27.0625 L 31.625 -44.5 Z M 42.46875 -44.5 "/></g></g></g><g fill="#ffffff" fill-opacity="1"><g transform="translate(64.558594, 205.320001)"><g><path d="M 31.625 -7.859375 L 15.03125 -7.859375 L 12.359375 0 L 1.015625 0 L 17.109375 -44.5 L 29.671875 -44.5 L 45.765625 0 L 34.296875 0 Z M 28.84375 -16.234375 L 23.328125 -32.515625 L 17.875 -16.234375 Z M 28.84375 -16.234375 "/></g></g></g></svg>