<svg xmlns="http://www.w3.org/2000/svg" xmlns:xlink="http://www.w3.org/1999/xlink" id="Layer_1" x="0px" y="0px" viewBox="0 0 100 100" style="enable-background:new 0 0 100 100;" xml:space="preserve"><style type="text/css">	.st0{fill:#003C7B;}	.st1{fill:none;stroke:#F6F6F6;stroke-miterlimit:10;}	.st2{fill:none;stroke:#ADCAF1;stroke-miterlimit:10;}	.st3{fill:none;stroke:#639FED;stroke-miterlimit:10;}	.st4{fill:none;stroke:#1A73E8;stroke-miterlimit:10;}	.st5{opacity:0.5;}	.st6{fill:#DEE0E4;}	.st7{fill:#1A73E8;}	.st8{fill:#4285F4;}	.st9{fill:#34A853;}	.st10{fill:#FBBC05;}	.st11{fill:#EB4335;}	.st12{fill:#FFFFFF;}	.st13{fill:#FBBC04;}	.st14{fill-rule:evenodd;clip-rule:evenodd;fill:#EA4335;}	.st15{fill:#C5221F;}	.st16{fill:#539EFC;}	.st17{fill:#0075EF;}	.st18{fill:#FEFEFE;}	.st19{fill:#EA4335;}	.st20{fill:#00AC47;}	.st21{fill:#D86155;}	.st22{opacity:0.4;clip-path:url(#SVGID_00000036953379855214081670000016394268699734276761_);}	.st23{fill:none;}	.st24{fill-rule:evenodd;clip-rule:evenodd;}	.st25{opacity:0.4;clip-path:url(#SVGID_00000044878958299416449290000017003880333581820810_);}	.st26{opacity:0.4;clip-path:url(#SVGID_00000014610222912565360260000002252676036881796261_);}	.st27{fill:#5774CD;}	.st28{opacity:0.4;clip-path:url(#SVGID_00000110439846412307364030000003358738375286871953_);}	.st29{opacity:0.4;clip-path:url(#SVGID_00000086667431410380448890000009223725461319878566_);}	.st30{fill:#1F86FB;}	.st31{fill:#FEB800;}	.st32{fill:#00AA47;}	.st33{fill:#FFC849;}	.st34{fill:#03264F;}	.st35{fill:#E27756;}	.st36{fill:#FD521B;}	.st37{opacity:0.53;clip-path:url(#SVGID_00000117640300235397953110000005822152417846806699_);}	.st38{opacity:0.4;clip-path:url(#SVGID_00000122713196406250139240000005375883689934523788_);}	.st39{opacity:0.4;clip-path:url(#SVGID_00000155124465826094348450000013740577361918531464_);}	.st40{opacity:0.53;clip-path:url(#SVGID_00000119819164385288006350000004371853825496042634_);}	.st41{fill-rule:evenodd;clip-rule:evenodd;fill:#FFFFFF;}	.st42{opacity:0.4;clip-path:url(#SVGID_00000026857998493657493660000003598648622142209421_);}	.st43{opacity:0.53;clip-path:url(#SVGID_00000126291233721996440820000002783122219619555230_);}	.st44{opacity:0.4;clip-path:url(#SVGID_00000183214175502357187300000000259633122942066578_);}	.st45{fill:#FFA200;}	.st46{opacity:0.4;clip-path:url(#SVGID_00000072979893052403479830000012302548427890446247_);}	.st47{opacity:0.4;clip-path:url(#SVGID_00000044175765098079566440000010238500403595998396_);}	.st48{clip-path:url(#SVGID_00000046298139171570577450000003701699211019610042_);}	.st49{clip-path:url(#SVGID_00000064349411639233194110000001286960276397022888_);}	.st50{opacity:0.4;clip-path:url(#SVGID_00000044136425330137137850000014112392456069966976_);}	.st51{opacity:0.4;clip-path:url(#SVGID_00000078751985419250624890000007530754357757604004_);}	.st52{opacity:0.4;clip-path:url(#SVGID_00000086664290766999278280000012925317558305937313_);}	.st53{opacity:0.4;clip-path:url(#SVGID_00000042697072161644924620000000773163153108190882_);}	.st54{clip-path:url(#SVGID_00000096768923089117902570000014270666156278447778_);}	.st55{opacity:0.4;clip-path:url(#SVGID_00000052092784639444558200000018090351016217225363_);}	.st56{opacity:0.4;clip-path:url(#SVGID_00000026854443699985836080000002538796605439752329_);}	.st57{fill:#EB4335;stroke:#EB4335;stroke-width:4;stroke-miterlimit:10;}	.st58{fill:#00ADFF;}	.st59{fill:#1A73E8;stroke:#1A73E8;stroke-width:4;stroke-miterlimit:10;}	.st60{opacity:0.4;clip-path:url(#SVGID_00000058576727891864997330000016591782952684572831_);}	.st61{fill:#DB7E65;}	.st62{opacity:0.4;clip-path:url(#SVGID_00000174589183134909186740000011983188275447690424_);}	.st63{fill:#FF6700;}	.st64{opacity:0.4;clip-path:url(#SVGID_00000061473990522102073350000000313992243365527684_);}	.st65{opacity:0.4;clip-path:url(#SVGID_00000107589426740584363740000013814092437910470277_);}	.st66{fill:#EFA189;}	.st67{opacity:0.4;clip-path:url(#SVGID_00000036969995255252305150000015603724007774465425_);}	.st68{opacity:0.4;clip-path:url(#SVGID_00000017480117572696097570000018351428339873154463_);}	.st69{fill:#00315E;}	.st70{opacity:0.4;clip-path:url(#SVGID_00000068664858414084149080000017854297476085890979_);}	.st71{opacity:0.4;clip-path:url(#SVGID_00000116205376356635996420000004023240118149117576_);}	.st72{fill:#0093E5;}	.st73{fill:#F66900;}	.st74{fill:#003768;}	.st75{fill:#0057A5;}	.st76{opacity:0.4;clip-path:url(#SVGID_00000080912481818402414740000009266023909302006151_);}	.st77{opacity:0.4;clip-path:url(#SVGID_00000059293482157884245910000003928945486644852879_);}	.st78{opacity:0.4;clip-path:url(#SVGID_00000178206354285664024250000013079848008116651946_);}	.st79{opacity:0.4;clip-path:url(#SVGID_00000074422848693826944060000008464145956979360947_);}	.st80{opacity:0.4;clip-path:url(#SVGID_00000083052817014325047080000005778594285218253704_);}	.st81{opacity:0.53;clip-path:url(#SVGID_00000003792879367260133550000013728066306848225434_);}	.st82{opacity:0.4;clip-path:url(#SVGID_00000085238913707584362930000002401099695192590493_);}	.st83{opacity:0.4;clip-path:url(#SVGID_00000122721912772718976140000016975649915313353398_);}	.st84{opacity:0.53;clip-path:url(#SVGID_00000139292406520887046680000011116048466956539294_);}	.st85{opacity:0.4;clip-path:url(#SVGID_00000122701122263432127780000008417843111524885385_);}	.st86{opacity:0.53;clip-path:url(#SVGID_00000102514143746362471730000014668979892319204517_);}	.st87{opacity:0.4;clip-path:url(#SVGID_00000132084502761476927870000008042909933480633261_);}	.st88{opacity:0.4;clip-path:url(#SVGID_00000083788777594238820840000018420840056846052796_);}	.st89{opacity:0.4;clip-path:url(#SVGID_00000181779030289208407360000004492135117221144457_);}	.st90{clip-path:url(#SVGID_00000175318936916980513250000008039225062142535100_);}	.st91{clip-path:url(#SVGID_00000094601124607205106780000011038223143248490685_);}	.st92{opacity:0.4;clip-path:url(#SVGID_00000113324640615127791310000004453546960216330635_);}	.st93{opacity:0.4;clip-path:url(#SVGID_00000137849036641686799600000000281132388261596800_);}	.st94{opacity:0.4;clip-path:url(#SVGID_00000009570232234379769850000012385451480508933537_);}	.st95{opacity:0.4;clip-path:url(#SVGID_00000123408246834795910880000013372618819242428346_);}	.st96{clip-path:url(#SVGID_00000106132583221320800980000005000905285503452853_);}	.st97{opacity:0.4;clip-path:url(#SVGID_00000167358477109720284920000009561238420236336558_);}	.st98{opacity:0.4;clip-path:url(#SVGID_00000165204512798223781420000013228282929621050263_);}	.st99{fill:#F6F6F6;}	.st100{fill:#E0E0E0;}	.st101{opacity:0.5;fill:none;stroke:#EB4335;stroke-width:5;stroke-linecap:round;stroke-linejoin:round;stroke-miterlimit:10;}	.st102{fill:#F6BC04;}	.st103{fill:#FA6900;}	.st104{fill:#FFB700;}	.st105{fill:#FFE3AB;}	.st106{fill:#FF9624;}	.st107{fill:#ED7906;}	.st108{fill:#FFDE9C;}	.st109{fill:#DD7F22;}</style><g>	<path class="st20" d="M74.02,28.04H25.98c-1.79,0-3.24,1.45-3.24,3.24v37.44c0,1.79,1.45,3.24,3.24,3.24h48.04  c1.79,0,3.24-1.45,3.24-3.24V31.28C77.26,29.49,75.81,28.04,74.02,28.04z M57.57,64.98c0,1.35-1.09,2.44-2.44,2.44H29.72  c-1.35,0-2.44-1.09-2.44-2.44v-7.24c0-1.35,1.09-2.44,2.44-2.44h25.41c1.35,0,2.44,1.09,2.44,2.44V64.98z M57.57,49.83  c0,1.35-1.09,2.44-2.44,2.44H29.72c-1.35,0-2.44-1.09-2.44-2.44v-7.24c0-1.35,1.09-2.44,2.44-2.44h25.41  c1.35,0,2.44,1.09,2.44,2.44V49.83z M72.72,64.98c0,1.35-1.09,2.44-2.44,2.44h-7.24c-1.35,0-2.44-1.09-2.44-2.44V42.59  c0-1.35,1.09-2.44,2.44-2.44h7.24c1.35,0,2.44,1.09,2.44,2.44V64.98z"></path>	<path class="st12" d="M70.28,40.16h-7.24c-1.35,0-2.44,1.09-2.44,2.44v22.38c0,1.35,1.09,2.44,2.44,2.44h7.24  c1.35,0,2.44-1.09,2.44-2.44V42.59C72.72,41.25,71.62,40.16,70.28,40.16z"></path>	<path class="st12" d="M55.13,40.16H29.72c-1.35,0-2.44,1.09-2.44,2.44v7.24c0,1.35,1.09,2.44,2.44,2.44h25.41  c1.35,0,2.44-1.09,2.44-2.44v-7.24C57.57,41.25,56.48,40.16,55.13,40.16z"></path>	<path class="st12" d="M55.13,55.3H29.72c-1.35,0-2.44,1.09-2.44,2.44v7.24c0,1.35,1.09,2.44,2.44,2.44h25.41  c1.35,0,2.44-1.09,2.44-2.44v-7.24C57.57,56.39,56.48,55.3,55.13,55.3z"></path></g></svg>